<svg width="1440" height="317" viewBox="0 0 1440 317" fill="none" xmlns="http://www.w3.org/2000/svg">
<rect y="29" width="1440" height="288" fill="#E5E5E5"/>
<g clip-path="url(#clip0_19135_298)">
<path d="M1255.13 38.767C1263.25 38.767 1270.08 33.225 1272.03 25.718L1277.5 26.532C1277.61 26.548 1277.71 26.556 1277.82 26.556C1278.87 26.556 1279.79 25.786 1279.95 24.716C1280.13 23.538 1279.31 22.44 1278.13 22.265L1272.59 21.44C1272.6 21.394 1272.6 21.349 1272.6 21.302C1272.6 21.12 1272.59 20.94 1272.58 20.76C1272.58 20.76 1272.13 14.242 1271.51 11.523C1270.89 8.804 1268.97 8.227 1268.97 8.227C1259.2 6.015 1249.2 5.789 1246.6 5.789C1244 5.789 1243.44 7.121 1243.44 7.121L1240.29 12.117L1240.28 12.114C1240.21 12.236 1240.14 12.359 1240.06 12.482L1240.04 12.525C1238.53 15.105 1237.67 18.101 1237.67 21.302C1237.67 30.948 1245.49 38.767 1255.13 38.767Z" fill="white"/>
<path d="M1293.53 78.076V78.074L1266.79 75.906L1257.55 54.794C1257.55 54.794 1257.09 52.02 1251.54 46.318C1245.99 40.616 1234.74 42.928 1234.74 42.928C1234.74 42.928 1210.85 47.397 1202.99 49.246C1195.13 51.096 1194.83 59.109 1194.83 59.109L1194.19 63.628L1179.02 60.687C1178.83 60.65 1178.64 60.632 1178.45 60.632C1177.04 60.632 1175.78 61.632 1175.5 63.061L1168.09 101.303C1167.78 102.923 1168.84 104.505 1170.46 104.819L1221.66 114.742C1221.78 114.764 1221.89 114.766 1222.01 114.775H1222.01C1221.28 114.879 1220.72 114.74 1220.72 114.74L1211.32 112.891L1208.24 129.996L1184.68 150.359C1182.97 151.72 1181.88 153.812 1181.88 156.16C1181.88 160.264 1185.21 163.59 1189.31 163.59C1191.35 163.59 1193.19 162.772 1194.53 161.445C1194.53 161.445 1222.26 139.395 1224.11 137.854C1225.96 136.314 1226.88 134.001 1226.88 134.001C1226.88 134.001 1231.42 120.053 1232.66 117.127C1233.51 115.123 1237.59 116.048 1237.59 116.048L1260.48 124.679L1268.09 153.741C1268.17 154.371 1268.33 154.975 1268.56 155.545H1268.57C1269.66 158.273 1272.34 160.199 1275.46 160.199C1279.56 160.199 1282.89 156.872 1282.89 152.769C1282.89 152.17 1282.81 151.59 1282.68 151.033C1281.84 146.068 1278.07 123.987 1277.12 119.207C1276.04 113.813 1272.5 112.273 1272.5 112.273C1272.5 112.273 1251.23 100.715 1249.84 99.944C1248.46 99.174 1248.76 97.17 1248.76 97.17L1252.69 82.839L1255.47 88.695C1255.47 88.695 1257.09 91.969 1259.55 92.086L1292.91 92.906C1297.01 92.906 1300.34 89.58 1300.34 85.475C1300.34 81.586 1297.35 78.396 1293.53 78.076ZM1222.1 62.807L1220.31 68.687L1230.21 70.606L1210 66.689L1210.55 64.193L1222.1 62.807ZM1219.85 108.28L1174.55 99.499L1180.82 67.146L1193.36 69.577L1191.74 81.144L1191.1 85.55C1191.1 85.576 1191.1 85.606 1191.09 85.632L1191.07 85.759H1191.08C1191.04 86.071 1191.01 86.388 1191.01 86.71C1191.01 90.814 1194.34 94.139 1198.44 94.139C1202.55 94.139 1205.87 90.814 1205.87 86.71C1205.87 86.392 1205.85 86.08 1205.81 85.773L1208.71 72.55L1226.13 75.924L1219.85 108.28Z" fill="white"/>
<path d="M1187.05 17.008H1225.08C1226.18 17.008 1227.08 16.112 1227.08 15.018C1227.08 13.924 1226.18 13.028 1225.08 13.028H1187.05C1185.95 13.028 1185.05 13.924 1185.05 15.018C1185.05 16.112 1185.95 17.008 1187.05 17.008Z" fill="white"/>
<path d="M1200.08 23.025C1198.98 23.025 1198.08 23.921 1198.08 25.015C1198.08 26.109 1198.98 27.005 1200.08 27.005H1223.04C1224.14 27.005 1225.04 26.109 1225.04 25.015C1225.04 23.92 1224.14 23.025 1223.04 23.025H1200.08Z" fill="white"/>
<path d="M1249.1 32.732C1257.22 32.732 1264.04 27.19 1266 19.683L1271.47 20.497C1271.57 20.513 1271.68 20.521 1271.79 20.521C1272.84 20.521 1273.76 19.751 1273.92 18.681C1274.09 17.503 1273.28 16.405 1272.1 16.23L1266.56 15.405C1266.56 15.359 1266.56 15.314 1266.56 15.267C1266.56 15.085 1266.56 14.905 1266.55 14.725C1266.55 14.725 1266.1 8.20703 1265.48 5.48803C1264.85 2.76903 1262.94 2.19203 1262.94 2.19203C1253.17 -0.0199716 1243.17 -0.245972 1240.56 -0.245972C1237.96 -0.245972 1237.41 1.08603 1237.41 1.08603L1234.26 6.08203L1234.25 6.07903C1234.17 6.20003 1234.1 6.32403 1234.03 6.44703L1234 6.49003C1232.5 9.07003 1231.63 12.066 1231.63 15.267C1231.63 24.913 1239.45 32.732 1249.1 32.732Z" fill="#3A3A3A"/>
<path d="M1287.5 72.041V72.039L1260.76 69.871L1251.51 48.759C1251.51 48.759 1251.05 45.985 1245.5 40.283C1239.95 34.581 1228.7 36.893 1228.7 36.893C1228.7 36.893 1204.82 41.362 1196.96 43.21C1189.1 45.06 1188.79 53.073 1188.79 53.073L1185.71 75.109L1185.07 79.515C1185.06 79.541 1185.06 79.571 1185.06 79.597L1185.04 79.724H1185.04C1185 80.036 1184.98 80.353 1184.98 80.675C1184.98 84.779 1188.31 88.104 1192.41 88.104C1196.51 88.104 1199.84 84.779 1199.84 80.675C1199.84 80.357 1199.82 80.045 1199.78 79.738L1204.51 58.157L1216.07 56.771L1214.28 62.651L1224.18 64.57C1225.8 64.883 1226.86 66.466 1226.55 68.087L1219.14 106.33C1218.86 107.76 1217.6 108.76 1216.19 108.76C1216.12 108.76 1216.05 108.744 1215.97 108.739C1215.24 108.843 1214.68 108.704 1214.68 108.704L1205.28 106.855L1202.2 123.96L1178.64 144.323C1176.94 145.684 1175.85 147.776 1175.85 150.124C1175.85 154.228 1179.17 157.554 1183.28 157.554C1185.31 157.554 1187.15 156.736 1188.5 155.409C1188.5 155.409 1216.22 133.359 1218.07 131.818C1219.92 130.278 1220.84 127.965 1220.84 127.965C1220.84 127.965 1225.38 114.017 1226.62 111.091C1227.47 109.087 1231.55 110.012 1231.55 110.012L1254.44 118.643L1262.05 147.705C1262.14 148.335 1262.3 148.939 1262.53 149.509H1262.53C1263.63 152.237 1266.3 154.163 1269.42 154.163C1273.52 154.163 1276.85 150.836 1276.85 146.733C1276.85 146.134 1276.78 145.554 1276.64 144.997C1275.8 140.032 1272.04 117.951 1271.08 113.171C1270 107.777 1266.46 106.237 1266.46 106.237C1266.46 106.237 1245.19 94.682 1243.81 93.91C1242.42 93.14 1242.73 91.136 1242.73 91.136L1246.66 76.805L1249.43 82.661C1249.43 82.661 1251.05 85.935 1253.52 86.052L1286.87 86.872C1290.98 86.872 1294.3 83.546 1294.3 79.441C1294.3 75.551 1291.31 72.36 1287.5 72.041Z" fill="#3A3A3A"/>
<path d="M1215.97 108.739H1215.97C1216.05 108.745 1216.12 108.76 1216.19 108.76C1217.6 108.76 1218.86 107.76 1219.14 106.33L1226.55 68.087C1226.87 66.466 1225.8 64.884 1224.18 64.57L1203.96 60.653L1202.68 66.515L1220.09 69.889L1213.82 102.243L1168.52 93.464L1174.79 61.111L1187.33 63.542L1188.16 57.592L1172.98 54.65C1172.79 54.613 1172.6 54.595 1172.41 54.595C1171.01 54.595 1169.74 55.595 1169.47 57.024L1162.06 95.268C1161.74 96.888 1162.81 98.47 1164.43 98.784L1215.63 108.707C1215.74 108.729 1215.86 108.73 1215.97 108.739Z" fill="#F0C42E"/>
<path d="M1221.04 8.982C1221.04 10.077 1220.14 10.972 1219.04 10.972H1181.01C1179.91 10.972 1179.01 10.076 1179.01 8.982C1179.01 7.888 1179.91 6.992 1181.01 6.992H1219.04C1220.14 6.993 1221.04 7.888 1221.04 8.982Z" fill="#F0C52E"/>
<path d="M1219 18.98C1219 20.074 1218.1 20.97 1217 20.97H1194.04C1192.94 20.97 1192.04 20.074 1192.04 18.98C1192.04 17.885 1192.94 16.99 1194.04 16.99H1217C1218.1 16.99 1219 17.886 1219 18.98Z" fill="#F0C52E"/>
</g>
<defs>
<clipPath id="clip0_19135_298">
<rect width="136" height="164" fill="white" transform="translate(1162)"/>
</clipPath>
</defs>
</svg>
