<svg width="139" height="164" viewBox="0 0 139 164" fill="none" xmlns="http://www.w3.org/2000/svg">
<path d="M93.1327 39.013C101.254 39.013 108.078 33.471 110.033 25.964L115.5 26.778C115.607 26.794 115.715 26.802 115.82 26.802C116.871 26.802 117.791 26.032 117.951 24.962C118.127 23.784 117.312 22.686 116.135 22.511L110.594 21.686C110.596 21.64 110.598 21.595 110.598 21.548C110.598 21.366 110.592 21.186 110.584 21.006C110.584 21.006 110.133 14.488 109.51 11.769C108.889 9.04997 106.975 8.47297 106.975 8.47297C97.2047 6.26097 87.2027 6.03497 84.5997 6.03497C81.9967 6.03497 81.4417 7.36697 81.4417 7.36697L78.2917 12.363L78.2817 12.36C78.2057 12.482 78.1357 12.605 78.0627 12.728L78.0357 12.771C76.5337 15.351 75.6687 18.347 75.6687 21.548C75.6677 31.194 83.4877 39.013 93.1327 39.013V39.013Z" fill="white"/>
<path d="M131.535 78.3219V78.3199L104.793 76.1519L95.5467 55.0399C95.5467 55.0399 95.0857 52.2659 89.5387 46.5639C83.9897 40.8619 72.7397 43.1739 72.7397 43.1739C72.7397 43.1739 48.8537 47.6429 40.9947 49.4919C33.1347 51.3419 32.8267 59.3549 32.8267 59.3549L32.1947 63.8739L17.0167 60.9329C16.8257 60.8959 16.6357 60.8779 16.4487 60.8779C15.0417 60.8779 13.7777 61.8779 13.5007 63.3069L6.0897 101.549C5.7757 103.169 6.8437 104.751 8.4647 105.065L59.6607 114.988C59.7757 115.01 59.8907 115.012 60.0067 115.021H60.0087C59.2807 115.125 58.7177 114.986 58.7177 114.986L49.3177 113.137L46.2357 130.242L22.6757 150.605C20.9747 151.966 19.8837 154.058 19.8837 156.406C19.8837 160.51 23.2097 163.836 27.3127 163.836C29.3477 163.836 31.1907 163.018 32.5327 161.691C32.5327 161.691 60.2577 139.641 62.1077 138.1C63.9577 136.56 64.8807 134.247 64.8807 134.247C64.8807 134.247 69.4217 120.299 70.6597 117.373C71.5077 115.369 75.5917 116.294 75.5917 116.294L98.4767 124.925L106.092 153.987C106.174 154.617 106.334 155.221 106.565 155.791H106.567C107.665 158.519 110.337 160.445 113.456 160.445C117.56 160.445 120.886 157.118 120.886 153.015C120.886 152.416 120.814 151.836 120.679 151.279C119.837 146.314 116.075 124.233 115.118 119.453C114.04 114.059 110.497 112.519 110.497 112.519C110.497 112.519 89.2287 100.961 87.8427 100.19C86.4557 99.4199 86.7647 97.4159 86.7647 97.4159L90.6947 83.0849L93.4677 88.9409C93.4677 88.9409 95.0867 92.2149 97.5517 92.3319L130.909 93.1519C135.013 93.1519 138.339 89.8259 138.339 85.7209C138.338 81.8319 135.346 78.6419 131.535 78.3219V78.3219ZM60.1037 63.0529L58.3147 68.9329L68.2127 70.8519L47.9987 66.9349L48.5467 64.4389L60.1037 63.0529ZM57.8547 108.526L12.5507 99.7449L18.8207 67.3919L31.3627 69.8229L29.7447 81.3899L29.1047 85.7959C29.0997 85.8219 29.0967 85.8519 29.0927 85.8779L29.0747 86.0049H29.0767C29.0367 86.3169 29.0137 86.6339 29.0137 86.9559C29.0137 91.0599 32.3407 94.3849 36.4437 94.3849C40.5467 94.3849 43.8727 91.0599 43.8727 86.9559C43.8727 86.6379 43.8517 86.3259 43.8117 86.0189L46.7127 72.7959L64.1257 76.1699L57.8547 108.526Z" fill="white"/>
<path d="M25.0498 17.254H63.0768C64.1768 17.254 65.0768 16.358 65.0768 15.264C65.0768 14.17 64.1768 13.274 63.0768 13.274H25.0498C23.9498 13.274 23.0498 14.17 23.0498 15.264C23.0498 16.358 23.9498 17.254 25.0498 17.254V17.254Z" fill="white"/>
<path d="M38.0796 23.271C36.9796 23.271 36.0796 24.167 36.0796 25.261C36.0796 26.355 36.9796 27.251 38.0796 27.251H61.0386C62.1386 27.251 63.0386 26.355 63.0386 25.261C63.0386 24.166 62.1386 23.271 61.0386 23.271H38.0796Z" fill="white"/>
<path d="M87.0978 32.978C95.2188 32.978 102.043 27.436 103.998 19.929L109.465 20.743C109.572 20.759 109.68 20.767 109.785 20.767C110.836 20.767 111.756 19.997 111.916 18.927C112.092 17.749 111.277 16.651 110.1 16.476L104.559 15.651C104.561 15.605 104.563 15.56 104.563 15.513C104.563 15.331 104.557 15.151 104.549 14.971C104.549 14.971 104.098 8.453 103.475 5.734C102.854 3.015 100.94 2.438 100.94 2.438C91.1698 0.226 81.1678 0 78.5638 0C75.9598 0 75.4058 1.332 75.4058 1.332L72.2558 6.328L72.2458 6.325C72.1698 6.446 72.0998 6.57 72.0268 6.693L71.9998 6.736C70.4978 9.316 69.6328 12.312 69.6328 15.513C69.6328 25.159 77.4528 32.978 87.0978 32.978V32.978Z" fill="#3A3A3A"/>
<path d="M125.5 72.287V72.285L98.7577 70.117L89.5117 49.005C89.5117 49.005 89.0507 46.231 83.5037 40.529C77.9547 34.827 66.7047 37.139 66.7047 37.139C66.7047 37.139 42.8187 41.608 34.9597 43.456C27.0997 45.306 26.7917 53.319 26.7917 53.319L23.7097 75.355L23.0697 79.761C23.0647 79.787 23.0617 79.817 23.0577 79.843L23.0397 79.97H23.0417C23.0017 80.282 22.9787 80.599 22.9787 80.921C22.9787 85.025 26.3057 88.35 30.4087 88.35C34.5117 88.35 37.8377 85.025 37.8377 80.921C37.8377 80.603 37.8167 80.291 37.7767 79.984L42.5107 58.403L54.0677 57.017L52.2787 62.897L62.1767 64.816C63.7967 65.129 64.8647 66.712 64.5517 68.333L57.1397 106.576C56.8627 108.006 55.5987 109.006 54.1917 109.006C54.1197 109.006 54.0457 108.99 53.9717 108.985C53.2437 109.089 52.6807 108.95 52.6807 108.95L43.2807 107.101L40.1987 124.206L16.6387 144.569C14.9377 145.93 13.8467 148.022 13.8467 150.37C13.8467 154.474 17.1727 157.8 21.2757 157.8C23.3107 157.8 25.1537 156.982 26.4957 155.655C26.4957 155.655 54.2207 133.605 56.0707 132.064C57.9207 130.524 58.8437 128.211 58.8437 128.211C58.8437 128.211 63.3847 114.263 64.6227 111.337C65.4707 109.333 69.5547 110.258 69.5547 110.258L92.4397 118.889L100.055 147.951C100.137 148.581 100.297 149.185 100.528 149.755H100.53C101.628 152.483 104.3 154.409 107.419 154.409C111.523 154.409 114.849 151.082 114.849 146.979C114.849 146.38 114.777 145.8 114.642 145.243C113.8 140.278 110.038 118.197 109.081 113.417C108.003 108.023 104.46 106.483 104.46 106.483C104.46 106.483 83.1927 94.928 81.8067 94.156C80.4197 93.386 80.7287 91.382 80.7287 91.382L84.6587 77.051L87.4317 82.907C87.4317 82.907 89.0507 86.181 91.5157 86.298L124.873 87.118C128.977 87.118 132.303 83.792 132.303 79.687C132.303 75.797 129.311 72.606 125.5 72.287V72.287Z" fill="#3A3A3A"/>
<path d="M53.9708 108.985H53.9728C54.0458 108.991 54.1198 109.006 54.1928 109.006C55.5998 109.006 56.8638 108.006 57.1408 106.576L64.5528 68.3329C64.8658 66.7119 63.7978 65.1299 62.1778 64.8159L41.9638 60.8989L40.6778 66.7609L58.0908 70.1349L51.8198 102.489L6.51579 93.7099L12.7858 61.3569L25.3278 63.7879L26.1598 57.8379L10.9818 54.8959C10.7908 54.8589 10.6008 54.8409 10.4138 54.8409C9.00679 54.8409 7.74279 55.8409 7.46579 57.2699L0.0547894 95.5139C-0.259211 97.1339 0.808789 98.7159 2.42979 99.0299L53.6258 108.953C53.7398 108.975 53.8548 108.976 53.9708 108.985V108.985Z" fill="#F0C42E"/>
<path d="M59.0416 9.22798C59.0416 10.323 58.1416 11.218 57.0416 11.218H19.0146C17.9146 11.218 17.0146 10.322 17.0146 9.22798C17.0146 8.13398 17.9146 7.23798 19.0146 7.23798H57.0416C58.1416 7.23898 59.0416 8.13398 59.0416 9.22798Z" fill="#F0C52E"/>
<path d="M57.0037 19.226C57.0037 20.32 56.1037 21.216 55.0037 21.216H32.0437C30.9437 21.216 30.0437 20.32 30.0437 19.226C30.0437 18.131 30.9437 17.236 32.0437 17.236H55.0027C56.1037 17.236 57.0037 18.132 57.0037 19.226Z" fill="#F0C52E"/>
</svg>
